<svg xmlns="http://www.w3.org/2000/svg" version="1.1" xmlns:xlink="http://www.w3.org/1999/xlink" xmlns:svgjs="http://svgjs.dev/svgjs" width="100%" height="100%" viewBox="0 0 1000 600"><rect width="1000" height="600" x="0" y="0" fill="#c0eba6"/><g><rect width="333.3333333333333" height="333.3333333333333" rx="13.333333333333334" ry="13.333333333333334" y="172.72419664992145" fill="#347928" transform="matrix(0.8305537809257593,0,0,0.8305537809257593,0,18.117612436185482)" x="150.501953125"/><path d="M327.28593135138544 414.39086655427883L327.28593135138544 414.39086655427883Q304.2800677929174 414.39086655427883 286.0249370534066 406.1210723879462Q267.7698063138957 397.8512782216134 257.2566105386111 381.5316312231592Q246.74341476332648 365.21198422470485 246.74341476332648 341.23837879570857L246.74341476332648 341.23837879570857Q246.74341476332648 319.28823364145336 256.94869267071573 301.91286823878636Q267.1539705781049 284.4935145692772 286.0249370534066 274.4641897292567Q304.89590352870823 264.3908766223941 330.84898096560323 264.3908766223941L330.84898096560323 264.3908766223941Q341.3621767408878 264.3908766223941 352.8871026535429 266.5023134308194Q364.41202856619793 268.5697619724026 372.46188139831963 272.264776387147L372.46188139831963 272.264776387147L373.69355286990105 305.5199061198464L361.6407677551397 306.6196127909012L354.2067506588087 284.18559670138177Q349.10411170511406 281.10641802242816 341.93402420983637 279.6987934834779Q334.7199484477163 278.29116894452767 328.51760282296686 278.29116894452767L328.51760282296686 278.29116894452767Q310.74634301872015 278.29116894452767 299.39737017343384 285.94512737506955Q288.0044090613053 293.6430740724537 282.4618874391888 306.7515775914278Q276.87537755023004 319.90406937724407 276.87537755023004 336.13573984201395L276.87537755023004 336.13573984201395Q276.87537755023004 356.72224872416126 284.08945331235 371.01843544787454Q291.2595408076278 385.3146221715879 303.57625552344234 392.8366158016033Q315.8489819724148 400.3146211647764 331.02493403297194 400.3146211647764L331.02493403297194 400.3146211647764Q337.0513265903527 400.3146211647764 344.2214140856305 398.6870552916152Q351.43548984775043 397.059489418454 357.15396453723577 392.9245923352876L357.15396453723577 392.9245923352876L351.567454648277 406.6489315900524L351.567454648277 380.5199010857887Q351.567454648277 373.43779012419526 351.2595367803816 367.2354444994458Q350.9516189124863 361.03309887469635 350.6437010445909 357.64600232784727L350.6437010445909 357.64600232784727L333.4882769761349 354.6987884494203L334.28006577929443 344.05362787360906L386.8460446557174 344.05362787360906L387.5938451920347 354.2589057809983L376.156895813064 357.47004926047856Q376.0249310125374 359.0536268667975 376.1129075462218 363.9803127531234Q376.156895813064 368.95098690629146 376.156895813064 375.2852973315675L376.156895813064 375.2852973315675Q376.156895813064 382.23544349263426 376.4208254141172 388.1298712494884Q376.64076674832813 393.98031073950034 376.94868461622355 400.9304569005671L376.94868461622355 400.9304569005671Q366.8753715093609 407.44072039321196 353.37097358880703 410.9157934737454Q339.82258740141094 414.39086655427883 327.28593135138544 414.39086655427883Z " fill="#fffbe6" transform="matrix(0.8305537809257593,0,0,0.8305537809257593,0,18.117612436185482)"/><path d="M678.0217312373412 286.6144942278637L678.0217312373412 286.6144942278637L682.6784703835789 322.0132836728407L672.3049213911471 323.07335437279716L663.5214784486501 298.9946056166418Q658.8647393024125 298.3509912630967 655.0030531811424 298.3509912630967L655.0030531811424 298.3509912630967L647.2796809386019 298.3509912630967Q645.1595395386889 298.3509912630967 641.9793274388194 298.3509912630967Q638.7612556710942 298.3509912630967 636.3760965961919 298.6160089380859L636.3760965961919 298.6160089380859Q636.3760965961919 300.20611498802066 636.2625175926252 306.6043988556154Q636.1110789212028 312.96482305535454 636.0353595854916 321.55896765857364Q635.9596402497805 330.1531122617926 635.9596402497805 338.52009885787805L635.9596402497805 338.52009885787805L635.9596402497805 364.3403923353906Q635.9596402497805 377.515556749136 636.2625175926252 387.3969300594451Q636.5275352676142 397.24044370189864 636.6411142711811 400.9506911517464L636.6411142711811 400.9506911517464L654.7380355061532 403.487288898071L654.0944211526082 412.8007671905462L596.0555503299883 412.8007671905462L595.3740763085876 403.487288898071L613.4709975435599 400.9506911517464Q613.4709975435599 397.24044370189864 613.7360152185489 387.3969300594451Q614.001032893538 377.515556749136 614.001032893538 364.3403923353906L614.001032893538 364.3403923353906L614.001032893538 338.52009885787805Q614.001032893538 330.1531122617926 614.001032893538 321.55896765857364Q614.001032893538 312.96482305535454 613.9631732256825 306.6043988556154Q613.8874538899713 300.20611498802066 613.7360152185489 298.6160089380859L613.7360152185489 298.6160089380859Q611.6158738186359 298.3509912630967 608.3599423830551 298.3509912630967Q605.1040109474743 298.3509912630967 602.8324308761389 298.3509912630967L602.8324308761389 298.3509912630967L594.9954796300317 298.3509912630967Q590.8687758337724 298.3509912630967 586.4770543625239 298.9946056166418L586.4770543625239 298.9946056166418L577.8071904235937 323.641249390631L567.1686237561728 322.27830134782977L571.6739242309881 286.6144942278637Q576.7471197236372 286.87951190285287 583.4104212662211 287.14452957784204Q590.073722808805 287.40954725283115 595.3740763085876 287.40954725283115L595.3740763085876 287.40954725283115L654.3594388275974 287.40954725283115Q659.65979232738 287.40954725283115 666.3230938699638 287.14452957784204Q672.9863954125477 286.87951190285287 678.0217312373412 286.6144942278637ZM727.2771591174643 414.39087324048097L727.2771591174643 414.39087324048097Q718.1151194964115 414.39087324048097 711.3760986181163 410.75634512634434Q704.6749374076768 407.0839573443521 701.0025496256845 401.48072650172475Q697.3301618436923 395.9153553269529 697.3301618436923 390.42570348789235L697.3301618436923 390.42570348789235Q697.3301618436923 382.96734892034107 701.98690098993 378.1970307705366Q706.6436401361676 373.3888529528767 717.1686278000217 370.0572021815847L717.1686278000217 370.0572021815847L750.0308194986741 359.4186355141639L750.0308194986741 349.57512187171045Q750.0308194986741 342.11676730415905 743.3296582882346 336.58925579724297Q736.5906374099394 331.06174429032677 727.4285977888866 331.06174429032677L727.4285977888866 331.06174429032677Q722.50684096766 331.06174429032677 720.7652962463027 333.14402602238425Q719.0237515249456 335.1884480865861 718.6451548463896 341.0566966042026L718.6451548463896 341.0566966042026L718.1151194964115 351.3166665930676Q709.4452555574813 353.32322898941385 703.5770070398647 350.7866312430893Q697.7466181901037 348.25003349676473 697.7466181901037 342.5332236505706L697.7466181901037 342.5332236505706Q697.7466181901037 337.72504583291067 703.652726375576 332.6139906724059Q709.5966942289036 327.46507584404566 717.963680824989 323.641249390631Q726.3685270889301 319.77956326936084 733.675442985059 318.68163290154877L733.675442985059 318.68163290154877Q750.4472758450855 318.68163290154877 760.5558071625281 327.162198501201Q770.6643384799708 335.60490443299756 770.815777151393 349.4615428681437L770.815777151393 349.4615428681437L770.1343031299924 383.11878759176346Q770.1343031299924 387.775526738001 770.4750401406928 391.56149352356005Q770.815777151393 395.34746030911907 771.7244091799272 397.24044370189864L771.7244091799272 397.24044370189864L785.3160299400841 399.89062045178997L785.3160299400841 407.34897501934125L773.8824102476959 411.74069649058964Q770.5507594764041 412.9522058619686 767.8248633908014 413.6715395512247Q765.0989673051989 414.39087324048097 762.9409662374304 414.39087324048097L762.9409662374304 414.39087324048097Q755.7854890127238 414.39087324048097 753.2488912663993 406.9325186729297L753.2488912663993 406.9325186729297L750.5608548486524 397.88405805544363L754.1575232949334 398.3005144018551Q740.4523235312098 414.39087324048097 727.2771591174643 414.39087324048097ZM734.7355136850155 399.89062045178997L734.7355136850155 399.89062045178997Q742.9889212775344 399.89062045178997 750.0308194986741 392.1672482092495L750.0308194986741 392.1672482092495L750.0308194986741 370.0572021815847L729.1322828423882 375.28183634565625Q719.553786874924 377.6669954205584 719.553786874924 386.18542068806624L719.553786874924 386.18542068806624Q719.553786874924 391.4857741878489 724.0212276818835 395.6881973198194Q728.4886684888432 399.89062045178997 734.7355136850155 399.89062045178997ZM804.8894782214244 407.0839573443521L804.8894782214244 407.0839573443521Q805.4195135714027 396.0289343305197 805.4952329071137 387.32121072373394Q805.5330925749694 378.57562744909256 805.5330925749694 368.61853480307235L805.5330925749694 368.61853480307235L805.5330925749694 335.3398867580085Q805.5330925749694 324.5498814191653 805.4195135714027 313.570577741044Q805.2680748999804 302.5912740629228 805.0787765607023 294.262147134693Q804.8894782214244 285.9708798743187 804.6244605464352 283.169264453005L804.6244605464352 283.169264453005L788.9126983863654 281.3141407280811L788.4962420399537 273.59076848554065L821.9263287564401 264.39086919663225L826.6966469062444 267.5710812965018Q826.3180502276886 276.5059629104211 826.0530325526994 285.44084452434043Q825.7880148777102 294.33786647040415 825.5608568705767 305.8472054985036Q825.3715585312988 317.35654452660305 824.992961852743 334.3933950616187L824.992961852743 334.3933950616187L825.6365762062879 334.6584127366079Q830.5583330275145 328.0329708618795 838.471003609333 323.3383720477863Q846.4215338590069 318.68163290154877 855.4699944764931 318.68163290154877L855.4699944764931 318.68163290154877Q866.108561143914 318.68163290154877 875.1570217614 323.90626706562017Q884.2054823788861 329.09304156183606 889.7329938858023 338.86083586857836Q895.2605053927185 348.62863017532067 895.2605053927185 362.4852686104667L895.2605053927185 362.4852686104667Q895.2605053927185 377.515556749136 888.0671685001563 389.252053784369Q880.8738316075941 400.9506911517464 868.5694395545273 407.68971203004156Q856.2650475014603 414.39087324048097 840.8183030163797 414.39087324048097L840.8183030163797 414.39087324048097Q831.0883683774929 414.39087324048097 821.9263287564401 412.38431084413475Q812.7264294675316 410.41560811564403 804.8894782214244 407.0839573443521ZM845.6264808340396 402.16220052312536L845.6264808340396 402.16220052312536Q857.4386972049837 402.16220052312536 865.1620694475242 393.2273189092061Q872.8854416900646 384.3302969631423 873.0368803614871 366.8769900817152L873.0368803614871 366.8769900817152Q873.1504593650537 350.37017489667784 865.2377887832355 342.6468026541374Q857.325118201417 334.92343041159694 846.2700951875846 334.92343041159694L846.2700951875846 334.92343041159694Q840.4018466699682 334.92343041159694 834.9121948309074 337.4600281579215Q829.3846833239912 339.99662590424606 825.3715585312988 345.18340040046195L825.3715585312988 345.18340040046195L825.3715585312988 395.76391665553064Q829.2332446525689 398.679111080411 834.3821594809293 400.4206558017682Q839.4932146414341 402.16220052312536 845.6264808340396 402.16220052312536ZM957.5396590151646 412.8007671905462L908.4356698064638 412.8007671905462L907.7541957850632 404.28234192303836L921.7622728916318 401.1021298231688Q922.1408695701876 398.1490757304328 922.5573259165991 387.96482507727893Q922.9359225951549 377.7805744241252 922.9359225951549 362.2202509354776L922.9359225951549 362.2202509354776L922.9359225951549 335.3398867580085Q922.9359225951549 324.9663377655767 922.8223435915883 314.10061309102224Q922.6709049201658 303.27274808432344 922.4816065808878 294.86790182038243Q922.2923082416099 286.50091522429693 921.8758518951985 283.43428212799415L921.8758518951985 283.43428212799415L906.0505107315618 281.3141407280811L905.6340543851503 273.59076848554065L939.5941764516148 264.39086919663225L944.3644946014191 267.5710812965018Q944.0994769264299 276.77098058541026 943.8344592514408 285.478704192196Q943.5694415764516 294.2242874668374 943.4558625728849 304.976433137825Q943.3044239014627 315.76643847666827 943.3044239014627 331.21318296174906L943.3044239014627 331.21318296174906L943.0394062264735 364.6054100103798Q943.0394062264735 378.04559209911434 943.3044239014627 388.3812814236905Q943.5694415764516 398.679111080411 944.0994769264299 401.1021298231688L944.0994769264299 401.1021298231688L957.956115361576 404.28234192303836L957.5396590151646 412.8007671905462ZM1016.1085651877628 414.39087324048097L1016.1085651877628 414.39087324048097Q1003.3498571204287 414.39087324048097 993.1656064672751 408.67406339428686Q982.9813558141212 402.95725354809275 977.0373879607936 392.583704555661Q971.1312797753213 382.1722958953737 971.1312797753213 368.2020784566609L971.1312797753213 368.2020784566609Q971.1312797753213 353.17179031799145 977.5295636429163 342.0031883005924Q983.8899878426554 330.7967266153376 994.2256771672315 324.70132009058756Q1004.5235068239521 318.568053897982 1016.373582862752 318.68163290154877L1016.373582862752 318.68163290154877Q1034.091907419168 318.83307157297105 1043.5946840509214 330.07739292608136Q1053.0974606826744 341.32171427919167 1053.0974606826744 360.47870621412045L1053.0974606826744 360.47870621412045L1053.0974606826744 364.7568486818022L988.546726988893 364.7568486818022L988.546726988893 354.76189636792634L1036.8935228404816 354.76189636792634L1034.091907419168 358.35856481420734L1034.091907419168 353.02035164656917Q1034.091907419168 341.32171427919167 1028.9051329229524 334.92343041159694Q1023.6804987588808 328.56300621185784 1014.6320381413947 328.56300621185784L1014.6320381413947 328.56300621185784Q1005.8485951988977 328.56300621185784 999.1474339884584 336.21065911868703Q992.4084131101632 343.8583120255162 992.4084131101632 359.3050565105971L992.4084131101632 359.3050565105971L992.4084131101632 362.4852686104667Q992.4084131101632 379.1435224669264 1000.8889787098154 388.7220184343908Q1009.331684641612 398.3005144018551 1023.0368844053359 398.3005144018551L1023.0368844053359 398.3005144018551Q1030.495238972887 398.3005144018551 1036.3256278226481 395.49889898054147Q1042.1938763402645 392.69728355922774 1047.797107182892 385.9204030130771L1047.797107182892 385.9204030130771L1053.5139170290859 391.22075651285974Q1047.3806508364805 402.95725354809275 1037.8021548690158 408.67406339428686Q1028.2236589015515 414.39087324048097 1016.1085651877628 414.39087324048097Z " fill="#fffbe6" transform="matrix(0.8305537809257593,0,0,0.8305537809257593,0,18.117612436185482)"/></g></svg>